<svg width="16" height="16" viewBox="0 0 16 16" fill="none" xmlns="http://www.w3.org/2000/svg">
<g id="gridicons:user">
<path id="Vector" d="M8 2C8.79565 2 9.55871 2.31607 10.1213 2.87868C10.6839 3.44129 11 4.20435 11 5C11 5.79565 10.6839 6.55871 10.1213 7.12132C9.55871 7.68393 8.79565 8 8 8C7.20435 8 6.44129 7.68393 5.87868 7.12132C5.31607 6.55871 5 5.79565 5 5C5 4.20435 5.31607 3.44129 5.87868 2.87868C6.44129 2.31607 7.20435 2 8 2ZM8 14C8 14 14 14 14 12.5C14 10.7 11.075 8.75 8 8.75C4.925 8.75 2 10.7 2 12.5C2 14 8 14 8 14Z" fill="white"/>
</g>
</svg>
