<svg width="32" height="32" viewBox="0 0 32 32" fill="none" xmlns="http://www.w3.org/2000/svg">
<g id="iconamoon:menu-burger-horizontal-fill">
<path id="Vector" fill-rule="evenodd" clip-rule="evenodd" d="M5.26316 6C4.92815 6 4.60686 6.14297 4.36997 6.39747C4.13308 6.65197 4 6.99713 4 7.35705C4 7.71696 4.13308 8.06213 4.36997 8.31662C4.60686 8.57112 4.92815 8.71409 5.26316 8.71409H26.7368C27.0719 8.71409 27.3931 8.57112 27.63 8.31662C27.8669 8.06213 28 7.71696 28 7.35705C28 6.99713 27.8669 6.65197 27.63 6.39747C27.3931 6.14297 27.0719 6 26.7368 6H5.26316ZM4 15.4993C4 15.1394 4.13308 14.7942 4.36997 14.5397C4.60686 14.2853 4.92815 14.1423 5.26316 14.1423H26.7368C27.0719 14.1423 27.3931 14.2853 27.63 14.5397C27.8669 14.7942 28 15.1394 28 15.4993C28 15.8592 27.8669 16.2044 27.63 16.4589C27.3931 16.7134 27.0719 16.8564 26.7368 16.8564H5.26316C4.92815 16.8564 4.60686 16.7134 4.36997 16.4589C4.13308 16.2044 4 15.8592 4 15.4993ZM4 23.643C4 23.283 4.13308 22.9379 4.36997 22.6834C4.60686 22.4289 4.92815 22.2859 5.26316 22.2859H26.7368C27.0719 22.2859 27.3931 22.4289 27.63 22.6834C27.8669 22.9379 28 23.283 28 23.643C28 24.0029 27.8669 24.348 27.63 24.6025C27.3931 24.857 27.0719 25 26.7368 25H5.26316C4.92815 25 4.60686 24.857 4.36997 24.6025C4.13308 24.348 4 24.0029 4 23.643Z" fill="white"/>
</g>
</svg>
